# xmcd
#
# Track frame offsets: 
#        150
#        23178
#        44727
#        64695
#        83096
#        104005
#        127192
#        144390
#        159729
#        178780
#        198774
#        220489
#        235478
#
# Disc length: 3437 seconds
#
# Revision: 0
# Processed by: cddbd v1.5.2PL0 Copyright (c) Steve Scherf et al.
# Submitted via: ExactAudioCopy v0.90b4
#
DISCID=c50d6b0d
DTITLE=Alex Bello - Ábreme Tu Corazón
DYEAR=2007
DGENRE=Latin
TTITLE0=Ábreme Tu Corazón
TTITLE1=Perdóname
TTITLE2=Sin Ti
TTITLE3=Vuelve A Mí
TTITLE4=Amor Mió (f. Ricky Franco and MC Puppet)
TTITLE5=Mi Último Adiós
TTITLE6=Duele El Perderte (f. Ricky Franco)
TTITLE7=Invéntame
TTITLE8=Ya No Hay Palabras
TTITLE9=Amor Del Bueno
TTITLE10=Mis Días Sin Tu Amor
TTITLE11=El Compromiso
TTITLE12=Amor Mió (House Mix)
EXTD=
EXTT0=
EXTT1=
EXTT2=
EXTT3=
EXTT4=
EXTT5=
EXTT6=
EXTT7=
EXTT8=
EXTT9=
EXTT10=
EXTT11=
EXTT12=
PLAYORDER=
